HIERARCHY
ROOT Hips
{
    OFFSET   0.000000   0.000000   0.000000
    CHANNELS 6 Xposition Yposition Zposition Zrotation Xrotation Yrotation
    JOINT Chest
    {
        OFFSET   0.000000   8.007230   0.000000
        CHANNELS 3 Zrotation Xrotation Yrotation
        JOINT Chest2
        {
            OFFSET   0.000000  22.077100   0.000000
            CHANNELS 3 Zrotation Xrotation Yrotation
            JOINT Neck
            {
                OFFSET   0.000000  23.255100   0.000000
                CHANNELS 3 Zrotation Xrotation Yrotation
                JOINT Head
                {
                    OFFSET   0.000000  14.370100   1.956600
                    CHANNELS 3 Zrotation Xrotation Yrotation
                    End Site
                    {
                        OFFSET   0.000000  19.566000   0.000000
                    }
                }
            }
            JOINT LeftCollar
            {
                OFFSET   3.911900  19.017000  -0.467063
                CHANNELS 3 Zrotation Xrotation Yrotation
                JOINT LeftShoulder
                {
                    OFFSET  10.383700   0.000000   0.000000
                    CHANNELS 3 Zrotation Xrotation Yrotation
                    JOINT LeftElbow
                    {
                        OFFSET  26.662100   0.001193   0.000980
                        CHANNELS 3 Zrotation Xrotation Yrotation
                        JOINT LeftWrist
                        {
                            OFFSET  28.869000  -0.000059  -0.000082
                            CHANNELS 3 Zrotation Xrotation Yrotation
                            JOINT LeftFinger0
                            {
                                OFFSET   2.044650  -2.323450   3.252850
                                CHANNELS 3 Zrotation Xrotation Yrotation
                                JOINT LeftFinger01
                                {
                                    OFFSET   3.088130   0.000000   0.000000
                                    CHANNELS 3 Zrotation Xrotation Yrotation
                                    JOINT LeftFinger02
                                    {
                                        OFFSET   2.639460   0.000000   0.000000
                                        CHANNELS 3 Zrotation Xrotation Yrotation
                                        End Site
                                        {
                                            OFFSET   2.582190   0.000000   0.000000
                                        }
                                    }
                                }
                            }
                            JOINT LeftFinger1
                            {
                                OFFSET   8.364480   0.000000   3.252850
                                CHANNELS 3 Zrotation Xrotation Yrotation
                                JOINT LeftFinger11
                                {
                                    OFFSET   4.646930   0.000000   0.000000
                                    CHANNELS 3 Zrotation Xrotation Yrotation
                                    JOINT LeftFinger12
                                    {
                                        OFFSET   2.323470   0.000000   0.000000
                                        CHANNELS 3 Zrotation Xrotation Yrotation
                                        End Site
                                        {
                                            OFFSET   2.273050   0.000000   0.000000
                                        }
                                    }
                                }
                            }
                            JOINT LeftFinger2
                            {
                                OFFSET   8.364490   0.000016   1.078090
                                CHANNELS 3 Zrotation Xrotation Yrotation
                                JOINT LeftFinger21
                                {
                                    OFFSET   5.111610   0.000000   0.000000
                                    CHANNELS 3 Zrotation Xrotation Yrotation
                                    JOINT LeftFinger22
                                    {
                                        OFFSET   2.788150   0.000016   0.000000
                                        CHANNELS 3 Zrotation Xrotation Yrotation
                                        End Site
                                        {
                                            OFFSET   2.727660   0.000000   0.000000
                                        }
                                    }
                                }
                            }
                            JOINT LeftFinger3
                            {
                                OFFSET   7.899780   0.000015  -1.078090
                                CHANNELS 3 Zrotation Xrotation Yrotation
                                JOINT LeftFinger31
                                {
                                    OFFSET   4.646930   0.000000   0.000000
                                    CHANNELS 3 Zrotation Xrotation Yrotation
                                    JOINT LeftFinger32
                                    {
                                        OFFSET   2.323470   0.000000   0.000000
                                        CHANNELS 3 Zrotation Xrotation Yrotation
                                        End Site
                                        {
                                            OFFSET   2.273050   0.000000   0.000000
                                        }
                                    }
                                }
                            }
                            JOINT LeftFinger4
                            {
                                OFFSET   7.435090   0.000000  -3.252850
                                CHANNELS 3 Zrotation Xrotation Yrotation
                                JOINT LeftFinger41
                                {
                                    OFFSET   3.717550   0.000000   0.000000
                                    CHANNELS 3 Zrotation Xrotation Yrotation
                                    JOINT LeftFinger42
                                    {
                                        OFFSET   1.858770   0.000000   0.000000
                                        CHANNELS 3 Zrotation Xrotation Yrotation
                                        End Site
                                        {
                                            OFFSET   1.818440   0.000000   0.000000
                                        }
                                    }
                                }
                            }
                        }
                    }
                }
            }
            JOINT RightCollar
            {
                OFFSET  -3.911910  19.017000  -0.467062
                CHANNELS 3 Zrotation Xrotation Yrotation
                JOINT RightShoulder
                {
                    OFFSET -10.383700   0.000014   0.000000
                    CHANNELS 3 Zrotation Xrotation Yrotation
                    JOINT RightElbow
                    {
                        OFFSET -26.662100   0.001225   0.001091
                        CHANNELS 3 Zrotation Xrotation Yrotation
                        JOINT RightWrist
                        {
                            OFFSET -28.869000  -0.000020  -0.000085
                            CHANNELS 3 Zrotation Xrotation Yrotation
                            JOINT RightFinger0
                            {
                                OFFSET  -2.044650  -2.323490   3.252850
                                CHANNELS 3 Zrotation Xrotation Yrotation
                                JOINT RightFinger01
                                {
                                    OFFSET  -3.088130   0.000000   0.000000
                                    CHANNELS 3 Zrotation Xrotation Yrotation
                                    JOINT RightFinger02
                                    {
                                        OFFSET  -2.639460   0.000000   0.000000
                                        CHANNELS 3 Zrotation Xrotation Yrotation
                                        End Site
                                        {
                                            OFFSET  -2.582190   0.000000   0.000000
                                        }
                                    }
                                }
                            }
                            JOINT RightFinger1
                            {
                                OFFSET  -8.364480   0.000000   3.252850
                                CHANNELS 3 Zrotation Xrotation Yrotation
                                JOINT RightFinger11
                                {
                                    OFFSET  -4.646930   0.000000   0.000000
                                    CHANNELS 3 Zrotation Xrotation Yrotation
                                    JOINT RightFinger12
                                    {
                                        OFFSET  -2.323470   0.000000   0.000000
                                        CHANNELS 3 Zrotation Xrotation Yrotation
                                        End Site
                                        {
                                            OFFSET  -2.273050   0.000000   0.000000
                                        }
                                    }
                                }
                            }
                            JOINT RightFinger2
                            {
                                OFFSET  -8.364480   0.000000   1.078090
                                CHANNELS 3 Zrotation Xrotation Yrotation
                                JOINT RightFinger21
                                {
                                    OFFSET  -5.111620   0.000000   0.000000
                                    CHANNELS 3 Zrotation Xrotation Yrotation
                                    JOINT RightFinger22
                                    {
                                        OFFSET  -2.788160   0.000000   0.000000
                                        CHANNELS 3 Zrotation Xrotation Yrotation
                                        End Site
                                        {
                                            OFFSET  -2.727660   0.000000   0.000000
                                        }
                                    }
                                }
                            }
                            JOINT RightFinger3
                            {
                                OFFSET  -7.899780   0.000000  -1.078090
                                CHANNELS 3 Zrotation Xrotation Yrotation
                                JOINT RightFinger31
                                {
                                    OFFSET  -4.646930   0.000000   0.000000
                                    CHANNELS 3 Zrotation Xrotation Yrotation
                                    JOINT RightFinger32
                                    {
                                        OFFSET  -2.323470   0.000000   0.000000
                                        CHANNELS 3 Zrotation Xrotation Yrotation
                                        End Site
                                        {
                                            OFFSET  -2.273050   0.000000   0.000000
                                        }
                                    }
                                }
                            }
                            JOINT RightFinger4
                            {
                                OFFSET  -7.435090   0.000000  -3.252850
                                CHANNELS 3 Zrotation Xrotation Yrotation
                                JOINT RightFinger41
                                {
                                    OFFSET  -3.717550   0.000000   0.000000
                                    CHANNELS 3 Zrotation Xrotation Yrotation
                                    JOINT RightFinger42
                                    {
                                        OFFSET  -1.858760   0.000000   0.000000
                                        CHANNELS 3 Zrotation Xrotation Yrotation
                                        End Site
                                        {
                                            OFFSET  -1.818440   0.000000   0.000000
                                        }
                                    }
                                }
                            }
                        }
                    }
                }
            }
        }
    }
    JOINT LeftHip
    {
        OFFSET   9.783030   0.000000   0.000000
        CHANNELS 3 Zrotation Xrotation Yrotation
        JOINT LeftKnee
        {
            OFFSET   0.000063 -41.789100   0.000608
            CHANNELS 3 Zrotation Xrotation Yrotation
            JOINT LeftAnkle
            {
                OFFSET   0.000048 -41.133200  -0.000184
                CHANNELS 3 Zrotation Xrotation Yrotation
                JOINT LeftToe
                {
                    OFFSET   0.000000  -6.358960  14.674500
                    CHANNELS 3 Zrotation Xrotation Yrotation
                    End Site
                    {
                        OFFSET   0.000000   0.000000   3.913200
                    }
                }
            }
        }
    }
    JOINT RightHip
    {
        OFFSET  -9.783030   0.000000   0.000000
        CHANNELS 3 Zrotation Xrotation Yrotation
        JOINT RightKnee
        {
            OFFSET   0.000071 -41.789100   0.001239
            CHANNELS 3 Zrotation Xrotation Yrotation
            JOINT RightAnkle
            {
                OFFSET   0.000037 -41.133200  -0.000166
                CHANNELS 3 Zrotation Xrotation Yrotation
                JOINT RightToe
                {
                    OFFSET   0.000000  -6.358960  14.674500
                    CHANNELS 3 Zrotation Xrotation Yrotation
                    End Site
                    {
                        OFFSET   0.000000   0.000000   3.913200
                    }
                }
            }
        }
    }
}
MOTION
Frames: 4
Frame Time:   0.016667
 -2.362530  89.465500  -0.955320  -4.025400 -17.580800 -11.275300   5.120470  15.565100  -1.650670  11.387400  30.894900  -5.097320   7.002560   0.031772  -0.003929  11.504300   0.061661  -0.944437  -0.909427  -3.537980   0.559664 -59.373700  32.434900 -20.093400  -9.960680 -11.374800 -18.552300  16.640500  -6.120810   0.656470  34.719600  26.480100 -59.703300 -33.709300   0.074681   0.049900 -11.854700   0.040359  -0.040726 -35.442200   7.557170 -10.470300 -29.565800  -0.023543  -0.258609 -20.695700   0.103423  -0.165456 -28.971600   0.618949  -1.117990 -43.466500   0.066627  -0.279058 -28.948500   0.186420  -0.100254 -28.767700   0.615135  -1.120140 -41.057700  -0.027109  -0.065568 -27.344300   0.045634  -0.137504 -34.012500   0.462568  -0.685413 -51.022900  -0.000336   0.001205 -33.981300   0.001687  -0.001182  12.633600  -1.358030   5.161850  43.147700   1.567010  33.656300  -7.408610   2.691520  11.745400 -74.836800  10.868700  46.975200 -39.035800  32.843600  67.067300  30.444300  -0.015485   0.008974  10.222100  -0.001318   0.006271  12.080400   4.127430  18.678200  10.413500   0.001988  -0.006403   7.289520   0.007298  -0.005374  13.059000   2.436010  10.430600  13.279100   0.003307  -0.000380   8.843880   0.011350  -0.006621   8.084190   0.865969   6.001070   8.126870   0.008624  -0.000787   5.412490   0.003431  -0.000685  13.397100  -2.897770 -11.931300  20.548600   0.003870  -0.007286  13.685300   0.003012  -0.001663   2.641210  17.302000   5.259810   2.194940   5.908420  11.470000  -4.808930  -4.380280   0.734855  -0.000000   0.000000   0.000000   2.487280  17.913700  -1.469220   0.039113   1.122620  -0.627775  -1.113150  -1.828920   4.879910   0.000000   0.000000   0.000000
 -2.400390  89.457800  -0.974960  -3.979340 -17.592900 -11.150400   5.128880  15.566700  -1.634290  11.400400  30.899000  -5.065470   6.937500  -0.072024   0.008764  11.397600  -0.139608  -0.731345  -0.933872  -3.612960   0.562347 -59.320000  32.482100 -20.151300  -9.909720 -11.362200 -18.611100  16.678200  -6.199390   0.659414  34.746500  26.516400 -59.653800 -33.725600   0.075672   0.050568 -11.862800   0.040928  -0.034853 -35.469600   7.523910 -10.413300 -29.582600  -0.040133  -0.271292 -20.707400   0.093873  -0.181083 -28.995600   0.578983  -1.044500 -43.501100   0.055325  -0.312027 -28.971500   0.196194  -0.125004 -28.770000   0.574894  -1.046800 -41.123500  -0.060022  -0.100700 -27.388100   0.033287  -0.155420 -34.055600   0.453050  -0.670195 -51.087500   0.003758   0.001943 -34.024300   0.004001  -0.001160  12.649800  -1.384620   5.170170  44.084900   0.646612  33.822000  -7.384320   1.891400  11.594300 -74.827700  10.978700  44.393100 -39.237800  32.839300  66.984900  29.891200  -0.016022   0.009256   9.945620  -0.001310   0.006364  12.283800   3.859950  17.145900  10.531300   0.001520  -0.006334   7.371940   0.007240  -0.005309  13.073400   2.086210   8.893720  13.240600   0.003377  -0.000404   8.818220   0.011318  -0.006489   8.270150   0.848057   5.735730   8.314340   0.008630  -0.000786   5.537350   0.003485  -0.000691  13.512900  -2.914740 -11.978000  20.726400   0.003497  -0.007313  13.803800   0.002808  -0.001607   2.651000  17.261100   5.257670   2.211180   5.970850  11.400800  -4.835280  -4.384400   0.677639  -0.000000   0.000000  -0.000000   2.499760  17.928200  -1.488900   0.040428   1.129540  -0.688043  -1.124320  -1.851840   4.835110  -0.000000   0.000000  -0.000000
 -2.434140  89.449400  -0.990109  -3.920590 -17.600400 -10.995900   5.134980  15.558800  -1.612190  11.405600  30.885400  -5.019000   6.890340  -0.168257   0.020357  11.320600  -0.326244  -0.616107  -0.958275  -3.683270   0.547734 -59.269400  32.555100 -20.220100  -9.849140 -11.375200 -18.630900  16.712800  -6.249630   0.688700  34.757900  26.537900 -59.609900 -33.744800   0.047309   0.031664 -11.872400   0.025680  -0.018874 -35.491300   7.498810 -10.372900 -29.596000  -0.045954  -0.193068 -20.717000   0.047362  -0.137690 -29.010800   0.563070  -1.015150 -43.523500   0.024538  -0.232956 -28.986400   0.141490  -0.118379 -28.771300   0.558834  -1.017530 -41.176800  -0.105896  -0.130291 -27.423600  -0.002973  -0.144298 -34.088700   0.445759  -0.658549 -51.137000   0.008316   0.002716 -34.057200   0.006077  -0.001121  12.661200  -1.420250   5.156990  44.980200  -0.310738  34.027200  -7.278630   0.838071  11.359000 -74.915000  11.143800  41.876000 -39.538200  32.858100  67.234500  29.150500  -0.009948   0.005914   9.575270  -0.001299   0.006124  12.353400   3.818800  16.701100  10.593000   0.001049  -0.006259   7.415110   0.007180  -0.005260  13.125200   2.086380   8.715900  13.290200   0.003448  -0.000438   8.851260   0.011287  -0.006361   8.508530   0.869250   5.774450   8.552800   0.008637  -0.000796   5.696160   0.003541  -0.000699  13.666000  -2.861830 -11.661900  20.935100   0.003111  -0.007357  13.942800   0.002604  -0.001564   2.657500  17.216900   5.254290   2.226150   6.018420  11.328300  -4.863580  -4.376600   0.605149  -0.000000   0.000000   0.000000   2.506150  17.949000  -1.519710   0.044799   1.119750  -0.758643  -1.135010  -1.871670   4.789960   0.000000   0.000000   0.000000
 -2.463950  89.441400  -0.997254  -3.856700 -17.608700 -10.826100   5.137640  15.546000  -1.598700  11.405400  30.861200  -4.989460   6.849450  -0.254033   0.030526  11.253500  -0.492774  -0.531819  -0.982659  -3.745790   0.533114 -59.241000  32.625900 -20.265900  -9.791440 -11.401300 -18.640700  16.750000  -6.291360   0.734568  34.759700  26.548100 -59.582700 -33.762000   0.011943   0.008056 -11.881000   0.006965  -0.006685 -35.515300   7.485550 -10.344700 -29.613200  -0.046786  -0.081205 -20.729200  -0.001112  -0.073152 -29.028400   0.554632  -0.999245 -43.549800  -0.006665  -0.116437 -29.004100   0.061861  -0.102228 -28.772100   0.550178  -1.001750 -41.238800  -0.136012  -0.146938 -27.464900  -0.032717  -0.119789 -34.125600   0.437589  -0.645593 -51.192100   0.013290   0.003489 -34.093900   0.008354  -0.001097  12.668000  -1.466270   5.138950  45.811700  -1.251790  34.273800  -7.101780  -0.327748  11.029100 -74.853300  11.388200  39.620700 -39.921900  32.856800  67.780200  28.472300  -0.003589   0.001951   9.236160  -0.001292   0.005780  12.525600   3.812880  16.637600  10.704000   0.000587  -0.006184   7.492780   0.007119  -0.005213  13.333100   2.086400   8.690500  13.490100   0.003522  -0.000473   8.984420   0.011257  -0.006232   8.833270   0.956216   6.045480   8.881160   0.008644  -0.000810   5.914850   0.003598  -0.000708  13.908300  -2.739540 -10.960700  21.250900   0.002720  -0.007407  14.153100   0.002396  -0.001547   2.664020  17.186000   5.248180   2.237260   6.041170  11.256900  -4.893880  -4.358350   0.520777  -0.000000   0.000000   0.000000   2.509870  17.977400  -1.553030   0.053296   1.101150  -0.836389  -1.146140  -1.890620   4.740910   0.000000   0.000000   0.000000
